<?xml version="1.0" encoding="UTF-8" standalone="no"?>
<!-- Created with Inkscape (http://www.inkscape.org/) -->

<svg
   xmlns:dc="http://purl.org/dc/elements/1.1/"
   xmlns:cc="http://creativecommons.org/ns#"
   xmlns:rdf="http://www.w3.org/1999/02/22-rdf-syntax-ns#"
   xmlns:svg="http://www.w3.org/2000/svg"
   xmlns="http://www.w3.org/2000/svg"
   xmlns:sodipodi="http://sodipodi.sourceforge.net/DTD/sodipodi-0.dtd"
   xmlns:inkscape="http://www.inkscape.org/namespaces/inkscape"
   width="128"
   height="128"
   id="svg2"
   version="1.1"
   inkscape:version="0.92.1 r"
   sodipodi:docname="opensource.svg">
  <defs
     id="defs4" />
  <sodipodi:namedview
     id="base"
     pagecolor="#ffffff"
     bordercolor="#666666"
     borderopacity="1.0"
     inkscape:pageopacity="0.0"
     inkscape:pageshadow="2"
     inkscape:zoom="9.3281252"
     inkscape:cx="34.450485"
     inkscape:cy="75.842735"
     inkscape:document-units="px"
     inkscape:current-layer="layer1"
     showgrid="true"
     inkscape:snap-page="false"
     inkscape:window-width="3840"
     inkscape:window-height="2031"
     inkscape:window-x="0"
     inkscape:window-y="55"
     inkscape:window-maximized="1">
    <inkscape:grid
       type="xygrid"
       id="grid2985"
       empspacing="5"
       visible="true"
       enabled="true"
       snapvisiblegridlinesonly="true" />
  </sodipodi:namedview>
  <metadata
     id="metadata7">
    <rdf:RDF>
      <cc:Work
         rdf:about="">
        <dc:format>image/svg+xml</dc:format>
        <dc:type
           rdf:resource="http://purl.org/dc/dcmitype/StillImage" />
        <dc:title />
      </cc:Work>
    </rdf:RDF>
  </metadata>
  <g
     inkscape:label="Layer 1"
     inkscape:groupmode="layer"
     id="layer1"
     transform="translate(0,-924.36218)">
    <g
       style="stroke:none;display:block"
       id="layer4"
       transform="matrix(0.08798405,0,0,0.08595212,-111.80137,1023.2879)"
       inkscape:export-filename="/home/ybon/Work/osmtouch64.png"
       inkscape:export-xdpi="28.799999"
       inkscape:export-ydpi="28.799999" />
    <path
       sodipodi:type="arc"
       style="fill:#999999;fill-opacity:1;fill-rule:nonzero;stroke:none"
       id="path2987"
       sodipodi:cx="60"
       sodipodi:cy="58"
       sodipodi:rx="40"
       sodipodi:ry="40"
       d="M 100,58 A 40,40 0 0 1 60,98 40,40 0 0 1 20,58 40,40 0 0 1 60,18 40,40 0 0 1 100,58 Z"
       transform="matrix(1.6,0,0,1.6,-32,895.56218)" />
    <circle
       style="fill:none;stroke:#ffffff;stroke-width:8.07301807;stroke-opacity:1"
       cx="64"
       cy="988.36218"
       r="35.521278"
       id="circle4" />
    <path
       inkscape:connector-curvature="0"
       d="m 63.677083,966.16136 c -10.494925,0 -19.294516,7.34645 -21.554961,17.19552 h 10.575653 c 1.937525,-4.19797 6.135496,-7.10423 10.979308,-7.10423 6.700604,0 12.109525,5.40889 12.109525,12.10952 0,6.70052 -5.408921,12.10943 -12.109525,12.10943 -4.843812,0 -9.041783,-2.90609 -10.979308,-7.02341 H 42.122122 c 2.260445,9.76841 11.060036,17.11481 21.554961,17.11481 12.270986,0 22.200802,-9.9298 22.200802,-22.20083 0,-12.27099 -9.929816,-22.20081 -22.200802,-22.20081 z"
       id="path6"
       style="fill:#555555;fill-opacity:1;stroke-width:1.01444507" />
  </g>
</svg>
